<?xml version="1.0" encoding="UTF-8"?>
<svg width="317px" height="61px" viewBox="0 0 317 61" version="1.1" xmlns="http://www.w3.org/2000/svg" xmlns:xlink="http://www.w3.org/1999/xlink">
    <!-- Generator: Sketch 51.3 (57544) - http://www.bohemiancoding.com/sketch -->
    <title>Group 2</title>
    <desc>Created with Sketch.</desc>
    <defs></defs>
    <g id="Page-1" stroke="none" stroke-width="1" fill="none" fill-rule="evenodd">
        <g id="Group-2" transform="translate(-11.000000, -10.000000)" fill-rule="nonzero">
            <g id="Group">
                <g id="top-logo">
                    <g id="Page-1" transform="translate(42.756444, 40.113207) rotate(-21.000000) translate(-42.756444, -40.113207) translate(9.256444, 10.113207)">
                        <path d="M25.6443673,51.7119501 C16.1225495,46.4340233 12.6695578,34.392836 17.9474847,24.8704541 C23.2259756,15.3492004 35.2677271,11.897337 44.7889807,17.1741356 L41.7805173,22.6015548 C35.2513675,18.9821471 26.9948757,21.3503318 23.375468,27.8789175 C19.7560603,34.4086314 22.1236809,42.6656873 28.6528307,46.2845309 L25.6443673,51.7119501 Z" id="Fill-1" fill="#AE2C32"></path>
                        <path d="M1.94210671,44.7970667 C-3.82200718,27.0566957 5.92149447,7.93414265 23.6618655,2.1694602 C32.2562969,-0.623332015 41.4232735,0.0987457757 49.4741565,4.20094362 C57.5256082,8.30314146 63.4978169,15.2953562 66.2900406,23.889219 L52.7712661,28.2819536 C51.1519924,23.2984798 47.6894304,19.24461 43.0209416,16.8657332 C38.3530214,14.4868565 33.0375055,14.068961 28.0546002,15.6876661 C17.7675502,19.0302609 12.1182865,30.1184192 15.4603126,40.4049006 L1.94210671,44.7970667 Z" id="Fill-3" fill="#C1E7F6"></path>
                        <path d="M7.28274707,35.0508611 C8.28075523,20.2822853 20.7073664,9.10983618 34.9659145,10.1394689 L34.557469,17.0564142 C29.4124601,16.8214627 24.4445404,18.4681705 20.5793732,21.9458076 C16.7147699,25.4240284 14.3900312,30.2511615 14.0325525,35.5394113 L7.28274707,35.0508611 Z" id="Fill-10" fill="#42A5DC" opacity="0.9" transform="translate(21.124331, 22.806529) rotate(-6.000000) translate(-21.124331, -22.806529) "></path>
                        <path d="M26.1438043,56.5232087 C20.4248599,54.4126656 15.8593348,50.1682931 13.2876575,44.5733093 C10.7154203,38.9788934 10.4455426,32.7029244 12.5267367,26.9023387 C14.6084907,21.101753 18.7921556,16.470031 24.3072919,13.8613861 L26.2003555,17.9796713 C21.7697693,20.0754474 18.4086156,23.79616 16.7361575,28.45628 C15.0636994,33.1164 15.2809454,38.1587577 17.3470219,42.6536011 C19.4136582,47.1484444 23.0816439,50.5579143 27.6757245,52.2538459 C32.2692452,53.9503454 37.2401468,53.7294085 41.6712929,51.6336324 L43.5643564,55.7513497 C40.501636,57.2007862 37.2311882,57.9294801 33.9489821,57.9294801 C31.3213136,57.9294801 28.6863662,57.4626162 26.1438043,56.5232087 Z" id="Fill-6" fill="#42527F"></path>
                        <path d="M55.4266926,28.6784707 C51.9109258,17.1787993 39.6951819,10.6833538 28.1955105,14.1996727 L26.4199599,8.39159059 C33.54259,6.21466399 41.0853674,6.94012216 47.6614193,10.4371176 C54.2369191,13.9330089 59.0572961,19.7808422 61.2347748,26.9029201 L55.4266926,28.6784707 Z" id="Fill-8" fill="#FEFEFE"></path>
                        <path d="M27.4087934,9.24941204 C28.8251938,9.08696339 32.0305683,8.91731239 34.280599,9.28115388 L33.3039039,16.1990991 C32.0290495,15.9570235 29.5978292,15.9730392 28.158086,16.2112857 C27.7917461,13.3952698 27.6993877,12.127768 27.4087934,9.24941204 Z" id="Fill-10" fill-opacity="0.6" fill="#42A5DC" opacity="0.9" transform="translate(30.844696, 12.637980) rotate(-10.000000) translate(-30.844696, -12.637980) "></path>
                        <path d="M18.427814,48.6031988 C14.5829593,44.3561061 12.6311969,38.8741221 12.9318119,33.1665009 C13.2324269,27.4588796 15.7502172,22.2097577 20.0202913,18.3855959 C24.2903654,14.5614341 29.7986603,12.6168414 35.5405186,12.919173 C41.2790243,13.2181701 46.5565498,15.721854 50.4019633,19.9695024 L49.5710813,20.7125491 C45.9257053,16.6860919 40.9225329,14.3124551 35.4818484,14.0290192 C30.0400464,13.7422487 24.8161622,15.5856936 20.7679175,19.2114503 C16.7196727,22.837207 14.3331919,27.8134524 14.0476635,33.2248553 C13.7626939,38.6357025 15.6133201,43.8331391 19.2581373,47.8595963 L18.427814,48.6031988 Z" id="Fill-12" fill="#3F4B78"></path>
                        <path d="M33.4044369,51.1591379 C28.6403892,50.7424669 24.3233949,48.4952644 21.2493607,44.8320313 C18.1753266,41.1682556 16.712095,36.5273646 17.128766,31.763317 L19.2907897,31.9521211 C18.9245749,36.1389057 20.2103958,40.2177248 22.9122472,43.4371598 C25.6135561,46.6560522 29.4069989,48.6308995 33.5937835,48.9976568 L33.4044369,51.1591379 Z" id="Fill-14" fill="#DF2F29" transform="translate(25.326457, 41.461227) rotate(2.000000) translate(-25.326457, -41.461227) "></path>
                        <path d="M25.3568588,59.6660179 C11.1265127,54.2027023 3.99328651,38.1817156 9.45547375,23.9513695 L14.722462,25.9733153 C10.3750529,37.299371 16.0527489,50.0510564 27.3788045,54.3990296 L25.3568588,59.6660179 Z" id="Fill-16" fill="#1C1951"></path>
                    </g>
                    <path d="M71.4003906,33.0371094 C70.7558562,33.0371094 70.1227245,33.1282543 69.5009766,33.3105469 C68.8792287,33.4928395 68.265628,33.7109362 67.6601562,33.9648438 L66.703125,31.5234375 C68.2135492,30.8528612 69.7988198,30.5175781 71.4589844,30.5175781 C73.5748804,30.5175781 75.2106062,31.1669857 76.3662109,32.4658203 C77.5218157,33.7646549 78.0996094,35.5696499 78.0996094,37.8808594 C78.0996094,40.237642 77.5055398,42.0458921 76.3173828,43.3056641 C75.1292258,44.565436 73.4153758,45.1953125 71.1757812,45.1953125 C69.6328048,45.1953125 68.2265688,44.9511743 66.9570312,44.4628906 L66.9570312,41.9238281 C68.5390704,42.4251327 69.8867132,42.6757812 71,42.6757812 C72.2434958,42.6757812 73.1923795,42.3730499 73.8466797,41.7675781 C74.5009798,41.1621063 74.8574216,40.2539123 74.9160156,39.0429688 L68.7246094,39.0429688 L68.7246094,36.5625 L74.8964844,36.5625 C74.8574217,35.4557236 74.5253938,34.5914745 73.9003906,33.9697266 C73.2753875,33.3479787 72.4420625,33.0371094 71.4003906,33.0371094 Z M92.4570312,45 L89.4394531,45 L89.4394531,33.2421875 L85.9433594,33.2421875 L85.7871094,34.5507812 C85.3834615,37.8776208 85.0270198,40.2132094 84.7177734,41.5576172 C84.4085271,42.902025 83.9576853,43.8476535 83.3652344,44.3945312 C82.7727835,44.941409 81.9720103,45.2083334 80.9628906,45.1953125 C80.4160129,45.1953125 79.9342469,45.1236986 79.5175781,44.9804688 L79.5175781,42.5 C79.8951842,42.630209 80.2499983,42.6953125 80.5820312,42.6953125 C80.9270851,42.6953125 81.2005198,42.5374365 81.4023438,42.2216797 C81.6041677,41.9059229 81.7945955,41.3199913 81.9736328,40.4638672 C82.1526702,39.6077431 82.390298,38.2047624 82.6865234,36.2548828 C82.9827489,34.3050033 83.235025,32.4609462 83.4433594,30.7226562 L92.4570312,30.7226562 L92.4570312,45 Z M104.783203,45 L96.5605469,45 L96.5605469,30.7226562 L104.783203,30.7226562 L104.783203,33.203125 L99.5878906,33.203125 L99.5878906,36.3378906 L104.421875,36.3378906 L104.421875,38.8183594 L99.5878906,38.8183594 L99.5878906,42.5 L104.783203,42.5 L104.783203,45 Z M119.902344,45 L116.464844,45 L111.289062,37.7636719 L111.289062,45 L108.261719,45 L108.261719,30.7226562 L111.289062,30.7226562 L111.289062,37.6367188 L116.40625,30.7226562 L119.628906,30.7226562 L114.423828,37.578125 L119.902344,45 Z M127.707031,45 L124.679688,45 L124.679688,33.2421875 L120.802734,33.2421875 L120.802734,30.7226562 L131.583984,30.7226562 L131.583984,33.2421875 L127.707031,33.2421875 L127.707031,45 Z M137.308594,37.4414062 L138.304688,37.4414062 C139.235682,37.4414062 139.932289,37.2574888 140.394531,36.8896484 C140.856773,36.5218081 141.087891,35.9863316 141.087891,35.2832031 C141.087891,34.5735642 140.894208,34.0494809 140.506836,33.7109375 C140.119464,33.3723941 139.512374,33.203125 138.685547,33.203125 L137.308594,33.203125 L137.308594,37.4414062 Z M144.144531,35.1757812 C144.144531,36.7122473 143.664393,37.8873657 142.704102,38.7011719 C141.74381,39.514978 140.378264,39.921875 138.607422,39.921875 L137.308594,39.921875 L137.308594,45 L134.28125,45 L134.28125,30.7226562 L138.841797,30.7226562 C140.573576,30.7226562 141.890295,31.0953739 142.791992,31.8408203 C143.693689,32.5862667 144.144531,33.6979093 144.144531,35.1757812 Z M160.298828,37.8417969 C160.298828,40.2050899 159.712896,42.021478 158.541016,43.2910156 C157.369135,44.5605532 155.689464,45.1953125 153.501953,45.1953125 C151.314442,45.1953125 149.634771,44.5605532 148.462891,43.2910156 C147.29101,42.021478 146.705078,40.1985796 146.705078,37.8222656 C146.705078,35.4459517 147.292637,33.6311912 148.467773,32.3779297 C149.64291,31.1246682 151.327463,30.4980469 153.521484,30.4980469 C155.715506,30.4980469 157.393549,31.129551 158.555664,32.3925781 C159.717779,33.6556053 160.298828,35.4719934 160.298828,37.8417969 Z M149.878906,37.8417969 C149.878906,39.4368569 150.181638,40.6380168 150.787109,41.4453125 C151.392581,42.2526082 152.29752,42.65625 153.501953,42.65625 C155.91733,42.65625 157.125,41.0514483 157.125,37.8417969 C157.125,34.625635 155.92384,33.0175781 153.521484,33.0175781 C152.317051,33.0175781 151.408857,33.4228475 150.796875,34.2333984 C150.184893,35.0439494 149.878906,36.2467368 149.878906,37.8417969 Z M175.457031,45 L172.439453,45 L172.439453,38.8378906 L166.785156,38.8378906 L166.785156,45 L163.757812,45 L163.757812,30.7226562 L166.785156,30.7226562 L166.785156,36.3183594 L172.439453,36.3183594 L172.439453,30.7226562 L175.457031,30.7226562 L175.457031,45 Z M191.259766,45 L188.242188,45 L188.242188,38.8378906 L182.587891,38.8378906 L182.587891,45 L179.560547,45 L179.560547,30.7226562 L182.587891,30.7226562 L182.587891,36.3183594 L188.242188,36.3183594 L188.242188,30.7226562 L191.259766,30.7226562 L191.259766,45 Z M205.128906,40.5371094 C205.128906,42.0214918 204.635747,43.1363895 203.649414,43.8818359 C202.663081,44.6272824 201.203135,45 199.269531,45 L195.363281,45 L195.363281,30.7226562 L198.390625,30.7226562 L198.390625,36.2011719 L199.367188,36.2011719 C201.196624,36.2011719 202.614253,36.5803999 203.620117,37.3388672 C204.625982,38.0973345 205.128906,39.1634046 205.128906,40.5371094 Z M198.390625,42.5195312 L199.181641,42.5195312 C200.177739,42.5195312 200.906899,42.3551449 201.369141,42.0263672 C201.831383,41.6975895 202.0625,41.2011752 202.0625,40.5371094 C202.0625,39.8730436 201.83952,39.3977879 201.393555,39.1113281 C200.947589,38.8248684 200.164719,38.6816406 199.044922,38.6816406 L198.390625,38.6816406 L198.390625,42.5195312 Z M209.884766,45 L206.867188,45 L206.867188,30.7226562 L209.884766,30.7226562 L209.884766,45 Z M213.978516,30.7226562 L216.703125,30.7226562 L216.703125,37.6171875 L216.664062,39.4628906 L216.566406,41.5625 L216.625,41.5625 L223.216797,30.7226562 L226.839844,30.7226562 L226.839844,45 L224.144531,45 L224.144531,38.1445312 C224.144531,37.2265579 224.203124,35.8658944 224.320312,34.0625 L224.242188,34.0625 L217.621094,45 L213.978516,45 L213.978516,30.7226562 Z M225.140625,26.0839844 C225.016926,27.3014384 224.557947,28.1884738 223.763672,28.7451172 C222.969397,29.3017606 221.823575,29.5800781 220.326172,29.5800781 C218.783195,29.5800781 217.642256,29.3131537 216.90332,28.7792969 C216.164384,28.24544 215.749349,27.3470115 215.658203,26.0839844 L218.324219,26.0839844 C218.369792,26.7545606 218.537433,27.2249335 218.827148,27.4951172 C219.116863,27.7653008 219.636064,27.9003906 220.384766,27.9003906 C221.042321,27.9003906 221.532225,27.7522801 221.854492,27.4560547 C222.176759,27.1598292 222.373698,26.7024771 222.445312,26.0839844 L225.140625,26.0839844 Z M239.666016,36.2011719 L240.857422,36.2011719 C242.71941,36.2011719 244.158198,36.5787723 245.173828,37.3339844 C246.189458,38.0891965 246.697266,39.1568941 246.697266,40.5371094 C246.697266,43.5123847 244.731139,45 240.798828,45 L236.638672,45 L236.638672,30.7226562 L245.662109,30.7226562 L245.662109,33.2226562 L239.666016,33.2226562 L239.666016,36.2011719 Z M239.666016,42.5195312 L240.681641,42.5195312 C241.703781,42.5195312 242.452472,42.3551449 242.927734,42.0263672 C243.402997,41.6975895 243.640625,41.2011752 243.640625,40.5371094 C243.640625,39.879554 243.399742,39.4059259 242.917969,39.1162109 C242.436196,38.8264959 241.609381,38.6816406 240.4375,38.6816406 L239.666016,38.6816406 L239.666016,42.5195312 Z M268.349609,37.8417969 C268.349609,40.1855586 267.801112,41.9970639 266.704102,43.2763672 C265.607091,44.5556705 264.033213,45.1953125 261.982422,45.1953125 C260.100902,45.1953125 258.619797,44.6533257 257.539062,43.5693359 C256.458328,42.4853461 255.833334,40.9082135 255.664062,38.8378906 L252.929688,38.8378906 L252.929688,45 L249.902344,45 L249.902344,30.7226562 L252.929688,30.7226562 L252.929688,36.3183594 L255.722656,36.3183594 C255.944012,34.4368396 256.590164,32.9964243 257.661133,31.9970703 C258.732102,30.9977164 260.179027,30.4980469 262.001953,30.4980469 C264.059255,30.4980469 265.631505,31.1360613 266.71875,32.4121094 C267.805995,33.6881574 268.349609,35.4980352 268.349609,37.8417969 Z M258.769531,37.8417969 C258.769531,39.4303465 259.042966,40.6298788 259.589844,41.4404297 C260.136721,42.2509806 260.93424,42.65625 261.982422,42.65625 C264.143891,42.65625 265.224609,41.0514483 265.224609,37.8417969 C265.224609,36.2532473 264.956057,35.0520874 264.418945,34.2382812 C263.881833,33.4244751 263.082688,33.0175781 262.021484,33.0175781 C260.953771,33.0175781 260.14486,33.4244751 259.594727,34.2382812 C259.044594,35.0520874 258.769531,36.2532473 258.769531,37.8417969 Z M269.699219,42.4804688 L270.802734,42.4804688 C271.74675,40.5924385 272.492185,38.7060641 273.039062,36.8212891 C273.58594,34.936514 273.992837,32.9036567 274.259766,30.7226562 L282.580078,30.7226562 L282.580078,42.4804688 L284.484375,42.4804688 L284.484375,49.1601562 L281.564453,49.1601562 L281.564453,45 L272.619141,45 L272.619141,49.1601562 L269.699219,49.1601562 L269.699219,42.4804688 Z M276.662109,33.2421875 C276.453775,34.7330804 276.107099,36.3118406 275.62207,37.9785156 C275.137042,39.6451906 274.5918,41.1458267 273.986328,42.4804688 L279.5625,42.4804688 L279.5625,33.2421875 L276.662109,33.2421875 Z M290.462891,37.578125 L285.667969,30.7226562 L288.783203,30.7226562 L293.402344,37.6367188 L293.402344,30.7226562 L296.224609,30.7226562 L296.224609,37.6367188 L300.84375,30.7226562 L303.96875,30.7226562 L299.164062,37.578125 L304.242188,45 L301,45 L296.224609,37.7636719 L296.224609,45 L293.402344,45 L293.402344,37.7636719 L288.626953,45 L285.384766,45 L290.462891,37.578125 Z M314.761719,45 L306.539062,45 L306.539062,30.7226562 L314.761719,30.7226562 L314.761719,33.203125 L309.566406,33.203125 L309.566406,36.3378906 L314.400391,36.3378906 L314.400391,38.8183594 L309.566406,38.8183594 L309.566406,42.5 L314.761719,42.5 L314.761719,45 Z M323.748047,45 L320.720703,45 L320.720703,33.2421875 L316.84375,33.2421875 L316.84375,30.7226562 L327.625,30.7226562 L327.625,33.2421875 L323.748047,33.2421875 L323.748047,45 Z" id="ЭЛЕКТРОННЫЙ-БЮДЖЕТ" fill="#42527F"></path>
                </g>
            </g>
            <g id="Group-3" transform="translate(67.000000, 54.000000)" fill="#42527F" font-family="Helvetica-Bold, Helvetica" font-size="10" font-weight="bold">
                <text id="Управление-националь">
                    <tspan x="0" y="10">Управление национальными проектами</tspan>
                </text>
            </g>
        </g>
    </g>
</svg>